<svg xmlns="http://www.w3.org/2000/svg" width="900" height="520" viewBox="0 0 900 520" role="img" aria-labelledby="title desc">
  <title id="title">Central fragment network placeholder</title>
  <desc id="desc">Placeholder image for the fragment network of interest.</desc>
  <rect width="900" height="520" fill="#f8fafc"/>
  <rect x="24" y="24" width="852" height="472" rx="8" fill="#ffffff" stroke="#cbd5e1" stroke-width="2"/>
  <text x="450" y="70" text-anchor="middle" font-family="Arial, sans-serif" font-size="28" font-weight="700" fill="#0f172a">Network of interest</text>
  <text x="450" y="106" text-anchor="middle" font-family="Arial, sans-serif" font-size="18" fill="#475569">Central correlated fragments from the stepped region</text>
  <g stroke="#64748b" stroke-width="4" opacity="0.85">
    <line x1="360" y1="230" x2="440" y2="180"/>
    <line x1="440" y1="180" x2="530" y2="225"/>
    <line x1="530" y1="225" x2="505" y2="330"/>
    <line x1="505" y1="330" x2="390" y2="340"/>
    <line x1="390" y1="340" x2="360" y2="230"/>
    <line x1="360" y1="230" x2="505" y2="330"/>
    <line x1="440" y1="180" x2="390" y2="340"/>
    <line x1="530" y1="225" x2="620" y2="285"/>
    <line x1="505" y1="330" x2="620" y2="285"/>
  </g>
  <g font-family="Arial, sans-serif" font-size="18" font-weight="700" text-anchor="middle">
    <circle cx="360" cy="230" r="38" fill="#22c55e"/>
    <text x="360" y="237" fill="#052e16">102.1</text>
    <circle cx="440" cy="180" r="38" fill="#38bdf8"/>
    <text x="440" y="187" fill="#082f49">135.0</text>
    <circle cx="530" cy="225" r="38" fill="#38bdf8"/>
    <text x="530" y="232" fill="#082f49">150.1</text>
    <circle cx="505" cy="330" r="38" fill="#38bdf8"/>
    <text x="505" y="337" fill="#082f49">181.1</text>
    <circle cx="390" cy="340" r="38" fill="#22c55e"/>
    <text x="390" y="347" fill="#052e16">184.1</text>
    <circle cx="620" cy="285" r="38" fill="#38bdf8"/>
    <text x="620" y="292" fill="#082f49">225.0</text>
  </g>
  <text x="450" y="444" text-anchor="middle" font-family="Arial, sans-serif" font-size="18" fill="#475569">Replace with screenshot of the large network/group you want to interpret</text>
</svg>
