<svg xmlns="http://www.w3.org/2000/svg" width="1200" height="620" viewBox="0 0 1200 620" role="img" aria-label="Large fragment network placeholder">
  <rect width="1200" height="620" fill="#f5f7fa"/>
  <rect x="44" y="42" width="1112" height="536" rx="12" fill="#ffffff" stroke="#c7d0d9" stroke-width="2"/>
  <text x="600" y="86" text-anchor="middle" font-family="Arial, sans-serif" font-size="30" font-weight="700" fill="#22313f">Initial fragment network</text>
  <text x="600" y="122" text-anchor="middle" font-family="Arial, sans-serif" font-size="17" fill="#52616f">Placeholder: replace with screenshot of a large mixed fragment group</text>
  <g stroke="#8b7cf6" stroke-width="2" opacity="0.85">
    <line x1="300" y1="260" x2="430" y2="200"/><line x1="430" y1="200" x2="590" y2="235"/><line x1="590" y1="235" x2="745" y2="220"/>
    <line x1="430" y1="200" x2="500" y2="360"/><line x1="500" y1="360" x2="690" y2="385"/><line x1="690" y1="385" x2="850" y2="320"/>
    <line x1="300" y1="260" x2="500" y2="360"/><line x1="590" y1="235" x2="690" y2="385"/><line x1="745" y1="220" x2="850" y2="320"/>
  </g>
  <g font-family="Arial, sans-serif" font-size="14" font-weight="700" fill="#111111" text-anchor="middle">
    <circle cx="300" cy="260" r="32" fill="#35b779"/><text x="300" y="265">102.1</text>
    <circle cx="430" cy="200" r="32" fill="#2db7d3"/><text x="430" y="205">135.0</text>
    <circle cx="590" cy="235" r="32" fill="#f2cb05"/><text x="590" y="240">181.0</text>
    <circle cx="745" cy="220" r="32" fill="#f26d21"/><text x="745" y="225">343.1</text>
    <circle cx="500" cy="360" r="32" fill="#2db7d3"/><text x="500" y="365">84.0</text>
    <circle cx="690" cy="385" r="32" fill="#f2cb05"/><text x="690" y="390">123.0</text>
    <circle cx="850" cy="320" r="32" fill="#f26d21"/><text x="850" y="325">152.1</text>
  </g>
  <text x="600" y="515" text-anchor="middle" font-family="Arial, sans-serif" font-size="17" fill="#52616f">At permissive settings, fragments from multiple compounds can appear as one large connected group.</text>
</svg>
